<svg width="20" height="20" viewBox="0 0 20 20" fill="none" xmlns="http://www.w3.org/2000/svg">
<g clip-path="url(#clip0_302_2)">
<path d="M10 20C15.5228 20 20 15.5228 20 10C20 4.47715 15.5228 0 10 0C4.47715 0 0 4.47715 0 10C0 15.5228 4.47715 20 10 20Z" fill="#5D5F61"/>
<path d="M18.2199 8.135C18.2199 7.805 17.9599 7.535 17.6299 7.535C17.3099 7.535 17.0449 7.8 17.0449 8.135C17.0449 8.465 17.3049 8.735 17.6299 8.735C17.9599 8.74 18.2199 8.47 18.2199 8.135ZM17.6299 8.57C17.4049 8.57 17.2299 8.38 17.2299 8.135C17.2299 7.895 17.4049 7.705 17.6299 7.705C17.8599 7.705 18.0399 7.895 18.0399 8.135C18.0399 8.38 17.8599 8.57 17.6299 8.57Z" fill="white"/>
<path d="M17.7899 8.18501C17.8199 8.17501 17.8849 8.13001 17.8849 8.03501C17.8849 7.92001 17.8099 7.85001 17.6849 7.85001H17.4199V8.41501H17.5949V8.22501H17.6399L17.7199 8.41501H17.9099L17.8049 8.22001C17.7949 8.19001 17.7899 8.18501 17.7899 8.18501ZM17.6399 8.10501H17.5949V7.97001H17.6399C17.6799 7.97001 17.6999 7.99001 17.6999 8.03501C17.7049 8.08001 17.6799 8.10501 17.6399 8.10501Z" fill="white"/>
<path d="M5.23003 8.6C5.47856 8.6 5.68003 8.39853 5.68003 8.15C5.68003 7.90147 5.47856 7.7 5.23003 7.7C4.9815 7.7 4.78003 7.90147 4.78003 8.15C4.78003 8.39853 4.9815 8.6 5.23003 8.6Z" fill="white"/>
<path d="M5.69996 8.895H3.63996V8.76C3.63996 8.495 3.90496 8.49 4.03996 8.49C4.19496 8.49 4.26496 8.505 4.26496 8.505V7.775C4.26496 7.775 4.12496 7.755 3.93496 7.755C3.50496 7.755 2.70996 7.875 2.70996 8.785V8.9H2.33496V9.575H2.70996V11H2.35996V11.675H4.04996V11H3.63996V9.575H4.76496V11H4.41496V11.675H6.04996V11H5.69996V8.895ZM9.19996 8.895H7.72496V9.57H7.97496L7.65496 10.57C7.59496 10.735 7.57996 10.935 7.57996 10.935H7.55996C7.55996 10.935 7.54496 10.735 7.48496 10.57L7.16496 9.57H7.41496V8.895H5.93996V9.57H6.24996L7.01996 11.67H8.11996L8.88996 9.57H9.19996V8.895ZM11.93 10.17C11.93 9.4 11.465 8.83 10.64 8.83C9.74496 8.83 9.19496 9.465 9.19496 10.28C9.19496 11.02 9.72996 11.735 10.72 11.735C11.47 11.735 11.915 11.345 11.915 11.345L11.575 10.7C11.575 10.7 11.205 10.965 10.795 10.965C10.5 10.965 10.22 10.81 10.15 10.455H11.91C11.905 10.45 11.93 10.26 11.93 10.17ZM10.17 9.94C10.22 9.725 10.35 9.53 10.615 9.53C10.82 9.53 10.965 9.72 10.965 9.94H10.17ZM15.875 9.535H15.865C15.865 9.535 15.875 9.48 15.875 9.395V9.25C15.875 8.995 15.735 8.895 15.48 8.895H14.605V9.57H14.865C14.94 9.57 14.985 9.615 14.985 9.69V11H14.61V11.675H16.295V11H15.92V10.595C15.92 10.09 16.17 9.76 16.685 9.76C16.8 9.76 16.875 9.775 16.875 9.775V8.86C16.875 8.86 16.82 8.85 16.765 8.85C16.345 8.845 15.995 9.155 15.875 9.535ZM13.41 9.535H13.4C13.4 9.535 13.41 9.48 13.41 9.395V9.25C13.41 8.995 13.27 8.895 13.015 8.895H12.14V9.57H12.4C12.475 9.57 12.52 9.615 12.52 9.69V11H12.145V11.675H13.83V11H13.455V10.595C13.455 10.09 13.705 9.76 14.22 9.76C14.335 9.76 14.41 9.775 14.41 9.775V8.86C14.41 8.86 14.355 8.85 14.3 8.85C13.875 8.845 13.525 9.155 13.41 9.535Z" fill="white"/>
</g>
<defs>
<clipPath id="clip0_302_2">
<rect width="20" height="20" fill="white"/>
</clipPath>
</defs>
</svg>
