<svg width="1362" height="295" viewBox="0 0 1362 295" fill="none" xmlns="http://www.w3.org/2000/svg">
<path fill-rule="evenodd" clip-rule="evenodd" d="M78.1274 295H0.67041V0.804688H199.541V63.6118H78.1274V119.81H188.704V182.417H78.1274V295ZM77.1274 181.417V294H1.67041V1.80469H198.541V62.6118H77.1274V120.81H187.704V181.417H77.1274ZM244.633 295H161.588L269.487 0.804688H341.523L450.027 295H366.98L351.825 246.033H259.744L244.633 295ZM243.896 294H163.02L270.185 1.80469H340.826L448.593 294H367.717L352.562 245.033H259.007L243.896 294ZM277.771 184.226H333.742L305.716 93.6734L277.771 184.226ZM279.127 183.226H332.386L305.717 97.0601L279.127 183.226ZM543.516 294H468.26V1.80469H585.058C607.936 1.80469 627.736 5.21631 644.46 12.0396C661.184 18.729 674.094 28.6294 683.192 41.7407C692.29 54.8521 696.838 71.1074 696.838 90.5068C696.838 107.899 694.229 122.282 689.012 133.654C683.928 144.892 676.77 154.124 667.539 161.348C661.683 165.912 655.163 170.06 647.977 173.792C647.682 173.946 647.386 174.098 647.088 174.25L706.471 290.789V294H625.796L576.825 194.662H543.516V294ZM584.255 133.854C592.55 133.854 599.44 132.517 604.925 129.841C610.544 127.165 614.692 123.218 617.368 118C620.177 112.649 621.582 106.093 621.582 98.3335C621.582 87.0952 618.505 78.332 612.351 72.0439C606.196 65.7559 597.099 62.6118 585.058 62.6118H543.516V133.854H584.255ZM544.516 132.854H584.255C592.45 132.854 599.178 131.532 604.487 128.942L604.495 128.938C609.929 126.35 613.909 122.554 616.478 117.544L616.482 117.536C619.198 112.362 620.582 105.976 620.582 98.3335C620.582 87.2809 617.56 78.7967 611.636 72.7434C605.731 66.7098 596.931 63.6118 585.058 63.6118H544.516V132.854ZM544.516 195.662V295H467.26V0.804688H585.058C608.03 0.804688 627.963 4.22966 644.833 11.1116C661.714 17.8642 674.79 27.8785 684.013 41.1706C693.25 54.4826 697.838 70.9483 697.838 90.5068C697.838 107.988 695.218 122.523 689.923 134.066C684.776 145.443 677.52 154.806 668.155 162.136L668.153 162.137C662.244 166.743 655.669 170.924 648.431 174.683L707.471 290.549V295H625.174L576.203 195.662H544.516ZM959.128 295H727.948V253.549L860.42 63.6118H726.142V0.804688H958.125V41.248L827.006 232.394H959.128V295ZM825.107 233.394L957.125 40.938V1.80469H727.142V62.6118H862.336L728.948 253.863V294H958.128V233.394H825.107ZM1068.5 295H991.445V0.804688H1068.5V295ZM1361.3 295H1284.66L1189.71 128.791V295H1112.46V0.804688H1189.29L1284.24 167.014V0.804688H1361.3V295ZM1285.24 170.78L1188.71 1.80469H1113.46V294H1188.71V125.024L1285.24 294H1360.3V1.80469H1285.24V170.78ZM1067.5 294V1.80469H992.445V294H1067.5Z" fill="#7DBEFF" fill-opacity="0.8"/>
</svg>
