<svg width="20" height="20" viewBox="0 0 20 20" fill="none" xmlns="http://www.w3.org/2000/svg">
<circle cx="10" cy="10" r="10" fill="#5D5F61"/>
<path d="M13.826 11.1143C13.1819 11.1143 12.579 10.8672 12.0305 10.4647L12.164 9.89694L12.1699 9.87619C12.289 9.27165 12.6661 8.25637 13.826 8.25637C14.6959 8.25637 15.4035 8.89826 15.4035 9.68653C15.4009 10.4724 14.6933 11.1143 13.826 11.1143ZM13.826 6.80724C12.344 6.80724 11.1953 7.68028 10.7285 9.11577C10.0151 8.14554 9.4757 6.9809 9.15954 6H7.565V9.7624C7.565 10.5039 6.89799 11.1084 6.07978 11.1084C5.26156 11.1084 4.59521 10.5039 4.59521 9.7624V6H3.00002V9.7624C2.99413 11.3034 4.37789 12.5682 6.07716 12.5682C7.77643 12.5682 9.16019 11.3034 9.16019 9.7624V9.13118C9.47046 9.71735 9.85011 10.3089 10.3116 10.8352L9.33431 15H10.9675L11.6751 11.9791C12.2956 12.3394 13.0091 12.5652 13.8273 12.5652C15.5763 12.5652 17 11.2661 17 9.68061C16.9987 8.09812 15.575 6.80724 13.826 6.80724Z" fill="white"/>
</svg>
